<?xml version="1.0" standalone="no"?>
<!DOCTYPE svg PUBLIC "-//W3C//DTD SVG 1.1//EN" "http://www.w3.org/Graphics/SVG/1.1/DTD/svg11.dtd" >
<svg xmlns="http://www.w3.org/2000/svg">
<metadata></metadata>
<defs>
<font id="voluptate_demoregular" horiz-adv-x="966" >
<font-face units-per-em="2048" ascent="1638" descent="-410" />
<missing-glyph horiz-adv-x="628" />
<glyph horiz-adv-x="2048" />
<glyph horiz-adv-x="2048" />
<glyph unicode="&#xd;" horiz-adv-x="508" />
<glyph unicode=" "  horiz-adv-x="628" />
<glyph unicode="&#x09;" horiz-adv-x="628" />
<glyph unicode="&#xa0;" horiz-adv-x="628" />
<glyph unicode="V" horiz-adv-x="2494" d="M2 418q12 329 155 556q-39 88 -52 220q-5 46 -5 92q0 212 105 394q135 233 438 315q138 37 256 37q82 0 155 -18q203 -50 377 -234q180 -190 180 -423q0 -76 -19 -156q-2 -11 -217 -744q-52 -177 -59 -252q-1 -14 -2 -25q0 -52 29 -52q7 0 16 3q378 136 604 371 q-46 76 -76 218q-25 120 -25 248q0 175 47 365q91 361 361 568q190 145 350 145q38 0 73 -8q85 -19 121 -157q18 -69 18 -149q0 -94 -24 -204q-115 -534 -666 -1009q18 -58 67 -119q97 -123 250 -138h9q25 0 69 8q41 9 65 9q7 0 12 -1q-6 1 11 2q18 0 33 -1q47 -4 18 -21 q-125 -73 -270 -73q-192 0 -365 221q-634 -353 -736 -395q-63 -26 -100 -26q-13 0 -23 3q-49 15 -74 107q-11 39 -11 92q0 215 178 655q100 248 100 510q0 65 -6 131q-39 414 -351 466q-51 8 -100 8q-263 0 -465 -245q-184 -221 -184 -436q0 -44 8 -87q78 84 199 154 q165 95 319 95q74 0 146 -22q127 -38 169 -130q20 -41 19 -89q0 -49 -20 -103q-91 -239 -402 -341q-95 -32 -178 -32q-127 0 -228 74q-81 -240 -101 -534q-5 -69 -5 -134q0 -488 267 -732q200 -182 491 -182q98 0 207 21q243 46 504 188q859 468 1551 468q62 0 123 -4 q513 -33 1023 -188q163 -50 387 -132q266 -97 325 -117q314 -105 547 -104q270 0 430 140q43 37 138 37q21 0 45 -2q120 -10 120 -48q0 -3 -1 -5q-9 -41 -91 -101q-83 -60 -154 -78q-170 -42 -359 -42q-334 0 -729 131q-1165 389 -1702 389h-8q-204 -1 -531 -126 q-108 -41 -297 -122q-236 -102 -314 -134q-592 -242 -1030 -242q-173 0 -322 38q-536 136 -720 574q-95 226 -95 567q0 47 2 97zM361 878q130 -67 260 -67l158 25q162 51 215 212q17 54 17 106q0 109 -76 209q-35 46 -86 46q-97 0 -251 -167q-211 -230 -237 -364zM2107 603 q112 87 243 235q263 296 361 602q63 198 63 325q0 91 -33 145q-32 55 -92 56h-2q-56 0 -122 -47q-219 -159 -344 -411q-120 -244 -120 -532q0 -178 46 -373z" />
<glyph unicode="a" horiz-adv-x="946" d="M21 176q-21 69 -21 148q0 105 37 227q62 209 166 342q100 127 196 132h7q34 0 91 -17q62 -18 84 -36q20 -16 40 -68q16 -45 19 -76q2 -26 -4 -27t-20 18q-5 7 -11 28q-8 29 -12 39q-20 49 -59 51h-2q-58 0 -138 -101q-98 -124 -160 -332q-54 -183 -55 -297q0 -18 2 -34 q9 -102 65 -104h2q44 0 130 76q77 69 127 138q76 421 114 468q29 35 120 54q38 8 60 5q24 -3 18 -18q-38 -87 -93 -267q-70 -225 -70 -322q0 -12 1 -23q10 -97 47 -127q18 -15 46 -15q14 0 30 4q43 10 114 53q76 47 107 88q15 21 25 24q8 3 9 -7v-6q0 -23 -19 -43 q-54 -57 -123 -98q-89 -53 -168 -53q-11 0 -21 1q-123 11 -171 84q-28 41 -35 122q-33 -49 -87 -98q-107 -96 -209 -96h-4q-62 1 -108 45q-44 42 -67 118z" />
<glyph unicode="b" horiz-adv-x="901" d="M17 528q52 380 189 731q116 298 258 503q197 287 387 296h12q141 0 141 -158q0 -45 -11 -102q-42 -211 -233 -576q-214 -408 -581 -799q-11 -84 -11 -172v-7q0 -169 47 -189q15 -6 33 -6q72 0 188 99q72 62 129 130q-25 88 -25 176q0 110 39 222q34 96 89 139 q39 31 84 31q26 0 53 -10q69 -25 69 -110q0 -80 -61 -214q-63 -138 -153 -266q54 -124 149 -124q12 0 25 2q52 9 153 77q27 18 27 7q0 -6 -8 -22q-12 -22 -33 -49q-89 -65 -173 -65q-52 0 -102 25q-65 32 -102 85q-48 -48 -126 -96q-142 -86 -275 -86q-13 0 -25 1 q-170 10 -170 310q0 94 17 217zM192 523q211 266 398 558q282 440 282 625q0 60 -30 93q-11 12 -26 12q-43 0 -120 -98q-96 -121 -210 -345q-270 -527 -294 -845zM619 355q65 91 118 190q67 127 67 190q0 35 -21 51q-17 12 -32 12q-48 0 -86 -113q-46 -138 -46 -330z" />
<glyph unicode="c" horiz-adv-x="775" d="M2 382q-2 25 -2 50q0 212 122 396q59 88 132 142q73 53 140 57q12 1 24 1q106 0 152 -51q38 -41 38 -120q0 -34 -7 -74q-21 -123 -67 -156q-15 -11 -33 -11q-20 0 -44 14q-15 9 -15 30q0 19 12 47q8 18 25 50q18 34 23 44q31 70 37 103q5 35 -14 55q-15 14 -50 16h-3 q-44 0 -86 -26q-128 -81 -177 -368q-16 -96 -16 -175q0 -160 67 -243q57 -73 179 -91q23 -4 48 -4q95 0 215 55q45 21 165 93q10 6 13 -6q1 -2 1 -5q0 -11 -11 -26q-39 -57 -174 -112q-166 -67 -299 -67q-102 0 -186 39q-192 88 -209 343z" />
<glyph unicode="d" horiz-adv-x="846" d="M21 225q-21 89 -21 182q0 104 26 214q42 176 155 296q100 108 201 108q16 0 32 -3q105 -18 161 -88q40 -51 40 -97q0 -89 -55 -114q-18 -8 -32 -8q-22 0 -36 20q-4 5 -4 45q0 29 2 77q1 11 1 21q0 80 -36 85q-4 1 -9 1q-61 0 -123 -107q-84 -141 -105 -396q-3 -32 -3 -63 q0 -111 37 -202q40 -100 97 -100q11 0 24 4q94 32 197 245q15 31 31 95q1 4 2 16q1 10 2 16q66 607 441 1508q6 28 19 48t28 20t32 -20q94 -107 92 -105q20 -32 20 -63q0 -34 -25 -66q-387 -508 -476 -1427q-13 -136 -13 -272q0 -391 111 -776q26 -90 26 -127q0 -19 -7 -23 q-4 -2 -11 -2q-41 0 -187 71q-47 23 -73 255q-16 146 -16 328q0 158 12 345q-133 -174 -287 -180h-12q-202 0 -258 239z" />
<glyph unicode="e" horiz-adv-x="694" d="M7 560q26 221 172 360q67 63 144 88q44 14 87 15q34 0 67 -10q77 -22 105 -79q14 -28 14 -63q0 -36 -15 -79q-66 -191 -381 -421v-16q0 -55 18 -113q41 -134 162 -162q47 -11 92 -10q147 0 278 111q15 7 25 7q8 0 8 -6q0 -8 -16 -27q-52 -62 -132 -102q-109 -53 -251 -53 q-21 0 -43 1q-188 10 -278 172q-63 115 -63 275q0 54 7 112zM196 489q117 63 212 153q122 114 122 210q0 55 -40 103q-25 32 -54 32q-23 0 -47 -21q-47 -39 -95 -145q-98 -212 -98 -332z" />
<glyph unicode="f" horiz-adv-x="758" d="M-328 -1044q-12 41 -12 92q0 109 54 260q151 422 458 734q-32 -33 -78 -57q-49 -26 -91 -26q-37 0 -68 20q-35 22 -35 65q0 53 52 136q89 143 310 346v36q0 506 108 853q81 259 277 457q174 176 305 176q10 0 19 -1q74 -7 116 -103q30 -68 30 -159q0 -56 -11 -120 q-81 -455 -669 -1058q-5 -130 -5 -218.5t5 -135.5q72 -5 141 -25q125 -36 125 -105q0 -7 -1 -14q-15 -83 -47 -101q-19 -12 -56 2q-23 9 -17 47q2 12 8 35q7 26 9 35q7 37 -21 51q-21 11 -66 11q-26 0 -61 -4v-51q0 -325 -59 -648q-127 -687 -469 -687h-11q-197 6 -240 157z M-52 -1098q26 -22 54 -22q46 0 99 55q84 86 152 270q105 286 105 571q0 160 -33 320q-160 -242 -288 -511q-154 -327 -154 -509q0 -118 65 -174zM20 15q55 23 148 106q86 78 121 87l-9 233q-92 -118 -170 -230q-110 -157 -110 -190q0 -9 8 -9q5 0 12 3zM446 719 q183 214 349 473q265 413 265 637q0 56 -17 101q-29 77 -76 77q-31 0 -69 -32q-87 -74 -189 -293q-231 -496 -263 -963z" />
<glyph unicode="g" horiz-adv-x="867" d="M-799 -1066q-1 9 -1 18q0 124 181 313q188 198 474 365q308 180 587 239q53 206 75 412q-18 -71 -67 -139q-94 -129 -241 -129h-17q-151 8 -190 235q-13 75 -13 159q0 93 16 198q26 174 188 324q113 104 223 104q75 0 150 -49q8 -25 -18 -21q-72 11 -71 12 q-62 -6 -123 -82q-102 -124 -163 -393q-24 -103 -24 -177q0 -150 96 -185q26 -10 50 -10q102 0 163 172q29 82 67 326q52 326 93 403q27 93 61 93q5 0 10 -2q10 -5 46 -12q43 -8 61 -13q57 -16 57 -42q0 -8 -5 -16q-3 -4 -221 -756q-94 -323 -102 -379q208 66 336 78 q29 3 29 0q0 -2 -8 -6q-16 -7 -90 -31q-210 -67 -280 -98q-59 -258 -218 -519q-318 -520 -814 -530h-22q-261 0 -275 138zM-526 -863q-41 -74 -41 -130q0 -84 90 -131q47 -24 99 -24q191 0 447 328q260 334 360 632q-331 -104 -623 -329q-243 -188 -332 -346z" />
<glyph unicode="h" horiz-adv-x="1011" d="M0 117q0 124 105 597q51 229 145 579q84 313 85 306q84 277 197 386q65 63 134 63q77 0 159 -78q23 -22 23 -73q0 -118 -122 -394q-140 -317 -364 -689q206 205 416 205q22 0 45 -2q185 -18 186 -117q0 -9 -2 -18q-11 -70 -131 -217q-125 -155 -195 -322 q-39 -94 -39 -155q0 -81 71 -101q51 -15 99 -15q63 0 121 25q49 21 133 88q45 36 55 22q3 -4 3 -10q0 -12 -14 -31q-33 -46 -117 -95q-125 -71 -267 -71q-196 0 -243 89q-15 28 -15 72q0 45 16 107q3 10 190 384q99 197 99 262q0 33 -25 33q-105 0 -243 -88 q-158 -100 -237 -250q-105 -333 -105 -490q0 -23 2 -43q6 -54 8 -49q-1 -3 -44 -9q-18 -3 -34 -3q-95 1 -95 102zM318 879q428 874 428 1013q0 20 -9 25q-4 2 -9 2q-42 0 -127 -171q-92 -186 -159 -415q-81 -276 -124 -454z" />
<glyph unicode="i" horiz-adv-x="512" d="M6 336q42 288 184 638q48 64 93 64q6 0 11 -1q8 -1 44 -4q29 -2 44 -7q27 -9 27 -35q0 -17 -11 -40q-65 -136 -148 -476q-53 -218 -52 -325q0 -95 40 -105q28 -6 56 -6q61 0 123 30q45 21 138 94q59 46 68 47q7 1 -14 -38q-94 -172 -382 -172h-20q-141 3 -187 125 q-20 55 -20 126q0 40 6 85zM531 1812q-22 19 -22 50q0 49 58 126q17 22 59 22q9 0 20 -1q61 -7 93 -48q17 -23 17 -50q0 -23 -12 -50q-25 -54 -73 -77q-26 -12 -51 -12q-46 0 -89 40z" />
<glyph unicode="j" horiz-adv-x="337" d="M-1277 -1063q-3 15 -3 31q0 120 158 295q175 195 451 360q297 178 577 237q152 636 174 776q51 327 93 404q27 93 60 93q5 0 10 -2q11 -5 47 -11q43 -8 61 -13q57 -16 57 -43q0 -8 -5 -16q-3 -4 -222 -758q-93 -323 -101 -379q208 66 336 78q9 1 15 1q8 0 8 -2 q0 -7 -92 -36q-210 -67 -281 -99q-59 -259 -218 -519q-319 -522 -816 -532h-23q-260 0 -286 135zM-992 -856q-42 -74 -42 -131q0 -84 91 -130q48 -25 100 -25q184 0 412 319q218 306 325 623q-261 -84 -553 -310q-244 -188 -333 -346zM416 1840q-21 19 -21 49q0 49 57 125 q17 22 58 22q10 0 20 -1q60 -7 92 -48q17 -22 17 -49q0 -23 -12 -50q-24 -53 -72 -75q-26 -12 -50 -12q-46 0 -89 39z" />
<glyph unicode="k" horiz-adv-x="1199" d="M-220 1371q25 93 103 165q131 121 307 121q68 0 144 -18q21 75 44 220q3 17 4 126q0 31 50 55q32 7 64 8h4q60 0 60 -29q0 -87 -104 -451q-13 -45 -13 -47q0 -1 7 21q8 26 20 68q152 -18 268 -173q211 137 478 559q2 17 9 32q10 20 25 20q7 0 16 -5q29 -16 19 -46 q-7 -18 -57 -96q-198 -306 -449 -529q28 -55 49 -167q23 -124 23 -267q0 -115 -15 -243q-8 -69 -8 -135q0 -129 31 -248q57 -215 191 -223q15 -1 29 -1q118 0 178 60q28 28 47 28q5 0 9 -2q8 -2 8 -9q0 -12 -28 -40q-125 -125 -273 -125q-159 0 -257 65q-129 87 -141 279 q-2 35 -2 77q0 165 34 437q15 120 15 213q0 115 -23 188q-170 -131 -271 -178q-169 -804 -169 -920v-7q2 -28 9 -61q10 -45 10 -43q5 -35 -31 -38q-35 -3 -61 -3q-36 0 -57 6q-74 24 -78 128v7q0 100 77 439q96 424 98 439q-44 -13 -94 -13q-27 0 -56 4q-163 20 -230 169 q-23 52 -23 108q0 37 10 75zM-40 1330q-8 -42 -7 -78q0 -96 57 -142q39 -31 89 -31q40 0 86 20q42 101 60 208t59 255q-76 -1 -157 -31q-161 -60 -187 -201zM384 1164q158 77 235 166q-3 38 -25 81q-45 86 -141 115q-57 -279 -69 -362z" />
<glyph unicode="l" horiz-adv-x="750" d="M13 862q54 441 257 820q105 196 218 290q92 76 182 76q33 0 66 -10q159 -51 164 -249v-12q0 -171 -109 -425q-225 -524 -587 -864q1 -97 34 -197q66 -199 228 -215q17 -1 33 -1q208 0 329 130q41 44 47 31t-20 -53q-37 -59 -115 -108q-165 -75 -294 -75h-7 q-236 4 -354 241q-85 171 -85 416q0 97 13 205zM197 615q198 255 367 552q240 418 240 644q0 94 -42 155q-28 40 -61 40q-51 0 -115 -94q-90 -132 -190 -421q-198 -572 -198 -803q0 -28 3 -51z" />
<glyph unicode="m" horiz-adv-x="1454" d="M-70 167q6 19 43 124q31 86 48 150q38 149 38 308q0 56 -5 113q-2 18 10 36q14 23 46 35q65 24 80 28q45 9 47 -19v-5q0 -40 -27 -179q-30 -154 -53 -208q61 95 156 200q189 210 360 262q38 12 68 12q48 0 72 -31q18 -23 18 -52q0 -28 -17 -61q-43 -84 -59 -118 q218 159 307 200q99 46 167 46q36 0 63 -13q49 -25 65 -76q6 -21 7 -44q0 -42 -22 -92q-81 -187 -136 -392q-40 -149 -40 -232q0 -92 49 -104q24 -6 50 -5q63 0 139 34q80 36 141 91q41 37 51 37h1q2 -1 2 -3q0 -8 -18 -34q-49 -66 -124 -110q-112 -65 -262 -65q-22 0 -45 1 q-183 12 -193 222q-1 13 -1 27q0 144 69 307q20 47 59 126q43 88 55 117q33 74 33 110q0 24 -14 32q-10 5 -58 -18q-53 -26 -117 -70q-171 -118 -272 -263q-53 -189 -74 -389q-3 -30 -5 -73q-1 -43 -3 -56q-5 -48 -33 -54q-24 -5 -49 -5q-34 0 -71 9q-80 19 -80 78q0 5 1 10 q16 141 146 530q32 97 96 225q21 44 25 57q6 19 -6 19q-46 0 -163 -102q-154 -133 -264 -337q-62 -114 -103 -296q-18 -81 -24 -100q-13 -39 -30 -41q-83 -9 -103 -9h-5q-45 8 -45 57q0 22 9 53z" />
<glyph unicode="n" horiz-adv-x="977" d="M-71 156q7 20 44 126q31 87 48 152q39 150 39 311q0 58 -5 116q-2 18 10 36q15 24 47 36q66 25 81 28q45 10 47 -19v-8q0 -43 -27 -179q-30 -156 -53 -211q61 96 157 203q193 214 366 266q35 11 70 11q45 0 65 -22q39 -30 50 -81q3 -17 4 -34q0 -44 -22 -93 q-82 -190 -138 -398q-40 -150 -40 -235q0 -94 50 -106q23 -5 48 -6q65 0 144 36q80 37 142 93q42 37 52 37h1q2 -1 2 -3q0 -8 -19 -34q-130 -178 -385 -178q-25 0 -51 2q-174 11 -194 199q-3 26 -3 54q0 121 54 271q8 20 16 39q-2 -4 97 206q1 3 18 36q13 26 20 43 q16 38 16 65q0 11 -3 20l-1 4q-21 1 -56 -16q-41 -20 -107 -75q-162 -136 -279 -352q-62 -115 -104 -299q-18 -83 -24 -102q-13 -39 -30 -41q-86 -10 -105 -10h-5q-46 9 -46 59q0 22 9 53z" />
<glyph unicode="o" horiz-adv-x="919" d="M12 509q44 276 181 413q102 102 222 102h11q90 -4 144 -55q20 -19 28 -38q7 -18 0 -25q-10 -10 -28 0q-32 18 -55 23q-6 1 -12 1q-46 0 -109 -73q-87 -98 -139 -271q-38 -124 -37 -248q0 -48 5 -95q11 -86 40 -135q34 -54 86 -54q93 0 150 86q29 42 40 85q-36 33 -63 99 q-32 76 -32 165q0 66 18 139q43 181 118 213q16 7 33 7q39 0 85 -37q42 -35 42 -171q0 -29 -2 -63q-12 -198 -81 -322q16 -12 44 -19q23 -6 47 -6q34 0 69 13q113 43 189 118q10 11 18 12q8 2 10 -5q1 -3 1 -7q0 -14 -17 -35q-43 -52 -136 -98q-106 -54 -213 -54 q-29 0 -59 4q-23 -47 -72 -93q-91 -85 -214 -85q-11 0 -22 1q-169 9 -247 135q-55 91 -55 231q0 65 12 142zM551 527q-9 -43 -10 -85q0 -92 45 -181q43 74 73 171q30 95 30 171q0 79 -32 137q-10 19 -21 19q-20 0 -41 -60q-18 -49 -44 -172z" />
<glyph unicode="p" horiz-adv-x="1128" d="M-311 -884q-8 71 -8 148q0 268 103 604q179 580 558 934q-76 350 -142 464q-29 51 -29 94q0 19 6 37q9 23 59 80q35 39 77 47q7 1 13 1q33 0 37 -36q63 -419 75 -623q218 149 382 149q38 0 73 -8q136 -31 161 -260q5 -44 5 -88q0 -177 -75 -357q-126 -302 -326 -302 q-9 0 -18 1q-133 8 -142 178v21q0 149 94 253q76 84 146 84q6 0 12 -1q28 -4 45 -21q16 -15 14 -32q-61 -424 -141 -424q-5 0 -10 2q10 -3 20 -3q66 0 159 132q113 159 153 359q18 95 18 165q0 197 -146 197h-11q-80 -4 -217 -103q-44 -32 -103 -81q-71 -58 -78 -63 q-24 -469 -102 -937q-157 -938 -428 -938q-196 0 -234 327zM-133 -659q-4 -54 -4 -102q0 -241 102 -299q13 -8 27 -8q71 0 153 203q97 237 158 619q62 389 62 662q0 98 -8 181q-210 -258 -344 -620q-123 -334 -146 -636z" />
<glyph unicode="q" horiz-adv-x="925" d="M12 579q45 278 182 415q103 103 224 103h11q90 -4 144 -55q34 -32 34 -51q0 -8 -5 -13q-10 -10 -29 0q-32 18 -55 24q-5 1 -11 1q-46 0 -111 -74q-87 -99 -140 -273q-37 -123 -37 -246q0 -50 6 -99q23 -190 127 -190q93 0 151 86q29 43 39 86q-36 33 -63 100 q-32 77 -32 166q0 66 18 139q54 224 150 224q40 0 88 -39q31 -26 39 -126q253 560 353 732q10 27 25 44q14 16 27 16q16 0 32 -24q60 -92 67 -109q9 -25 9 -48q0 -42 -29 -81q-292 -396 -469 -861q-15 -49 -34 -87l-3 -9t-3 -8q39 -25 85 -25q34 0 73 14q115 43 191 119 q22 23 28 7t-16 -42q-41 -49 -129 -95q-110 -58 -222 -58q-19 0 -37 2q-48 -148 -71 -260q-76 -378 -76 -695q0 -155 18 -296q24 -174 25 -174v1q0 -20 -12 -20t-44 18l-35 14q-36 15 -63 29q-89 48 -92 100q-1 17 -1 40q0 140 48 482q59 407 119 620q2 5 4 13q3 10 4 14 q-84 -63 -191 -63h-19q-171 10 -248 137q-56 92 -56 233q0 66 12 142zM554 597q-8 -39 -8 -79q0 -83 36 -171q52 156 110 294q1 16 1 31q0 81 -32 139q-10 19 -21 19q-20 0 -41 -60q-18 -49 -45 -173z" />
<glyph unicode="r" horiz-adv-x="896" d="M1 56q2 10 18 51q23 56 34 86q47 130 51 226q6 147 6 218q0 27 -1 42q-5 156 -49 244q-27 53 -33 68q-7 17 -1 19l20 -3q19 -2 34 5q23 11 43 11q48 0 75 -64q25 -57 59 -266q34 83 98 165q120 152 261 152q10 0 19 -1q146 -10 202 -205q27 -94 27 -185v-7 q49 -31 120 -120q35 -44 42 -55q8 -13 8 -21q0 -9 -11 -12q-3 -1 -6 -1q-23 0 -60 36q-49 49 -109 89q-95 -266 -373 -266h-14q-73 2 -89 71q-3 16 -3 34q0 51 27 117q38 88 105 147q71 61 146 61h9q0 43 -9 89q-18 93 -66 110q-18 6 -35 6q-51 0 -105 -48 q-90 -78 -178 -280q1 -31 1 -61q0 -276 -51 -411q-35 -95 -44 -97q-2 0 -12 7q-11 8 -24 7q-37 -2 -60 -2q-17 0 -27 1q-46 5 -46 34q0 4 1 9zM423 412q-8 -28 -7 -49q0 -36 21 -54q27 -22 56 -21q10 0 20 2q37 9 70 51q73 90 73 240q-23 10 -54 10q-62 0 -105 -48 q-54 -61 -74 -131z" />
<glyph unicode="s" horiz-adv-x="947" d="M3 195q-4 22 -4 45q0 106 76 228q28 45 87 73q55 26 118 27q65 0 112 -29q52 -32 68 -94q5 -23 2 -26q-2 -2 -14 9q-40 36 -57 40q-4 1 -8 1q-35 0 -85 -50q-57 -57 -81 -129q-12 -36 -12 -66q0 -40 21 -72q43 -68 174 -78q19 -2 36 -2q172 0 238 151q36 83 36 182 q0 26 -2 53q-7 61 -63 91q-35 19 -143 42q-94 21 -133 65q-26 30 -26 68q0 28 14 59q61 139 139 195q64 45 160 45q88 0 147 -72q27 -33 34 -67q1 -9 2 -17q0 -27 -16 -50q-35 -51 -79 -64q-17 -5 -24 0t0 17q18 29 31 94q7 33 7 52q0 21 -8 26h-2q-11 0 -56 -36 q-52 -41 -98 -93q-56 -61 -74 -104q-8 -19 -8 -33q0 -25 25 -34q29 -11 108 -19q89 -10 126 -19q67 -17 97 -54q24 -31 24 -79q0 -22 -5 -47q-38 -188 -203 -312q-149 -112 -338 -112q-43 0 -87 6q-229 28 -256 189z" />
<glyph unicode="t" horiz-adv-x="564" d="M-960 1294q7 21 47 45q124 74 418 128q167 31 321 31q258 0 477 -87q119 344 160 471q11 36 20 78q8 42 10 49q11 33 65 36q50 2 85 2.5t54 -2.5q48 -6 48 -27q0 -10 -11 -23q-36 -46 -123 -281q-84 -230 -112 -352q184 -101 419 -113q18 -1 35 -1q77 0 145 18 q89 25 110 25q25 0 32 -18q3 -7 7 -46q1 -12 6 -29q4 -15 4 -20q0 -17 -34 -20q-92 -8 -173 -8q-130 0 -232 20q-112 22 -227 61q-129 43 -134 45q-104 -272 -184 -558q-95 -337 -95 -499q0 -113 46 -141q35 -21 85 -21q66 0 159 37q103 41 203 110q48 33 51 17 q2 -14 -24 -40q-42 -42 -173 -101q-179 -80 -338 -80q-161 0 -198 100q-12 30 -12 177q0 96 80 400q93 353 216 656q-199 87 -493 87q-344 0 -688 -126q-53 -20 -53 -4q0 2 1 4z" />
<glyph unicode="u" horiz-adv-x="1003" d="M0 168q0 118 70 318q82 239 100 350q11 68 121 81q23 2 43 2q72 0 112 -30q18 -15 10 -49q-7 -26 -37 -82q-104 -199 -132 -268q-69 -175 -76 -256q-1 -10 -1 -18q0 -65 47 -70q2 0 5 -1q48 0 165 109q104 96 168 182q88 422 136 506q34 58 53 69q11 6 66 10 q51 -10 82 -16q36 -6 36 -36q0 -25 -27 -68q-84 -202 -133 -432q-41 -169 -45 -277v-14q0 -112 46 -122q13 -3 28 -3q63 0 152 52q15 13 63 61q28 28 48 25q7 -1 7 -8q0 -12 -15 -30q-42 -50 -94 -82q-131 -71 -224 -71h-12q-156 10 -178 121q-5 22 -5 55q0 20 2 44 q5 66 5 87v6q-65 -65 -147 -134q-165 -137 -253 -157q-32 -7 -59 -7q-56 0 -87 30q-40 39 -40 123z" />
<glyph unicode="v" horiz-adv-x="1140" d="M13 969q31 50 101 57q14 1 28 1q55 0 111 -19q104 -35 132 -125q11 -35 12 -92q0 -145 -74 -428q-11 -39 -31 -97q-26 -73 -30 -83q-12 -40 -10 -56q3 -21 26 -17q48 6 213 130q160 120 236 203q-19 24 -38 66q-37 83 -37 170q0 120 66 225q68 110 160 126q29 5 55 6 q56 0 96 -26q57 -37 60 -114v-8q0 -78 -57 -176q-68 -114 -202 -233q5 -26 25 -54q40 -55 112 -66q21 -3 43 -3q97 0 206 65q32 19 36 10q1 -1 1 -3q0 -9 -19 -29q-13 -16 -62 -39q-59 -29 -121 -41q-43 -9 -82 -9q-123 0 -202 89q-86 -94 -200 -190q-227 -192 -360 -206 q-27 -3 -50 -3q-95 0 -116 51q-6 13 -6 34q0 35 16 91q42 150 91 391q48 231 48 315q0 38 -10 46q-17 14 -24 12q-5 -2 -6 -16q-5 -42 -14 -50q-28 -23 -50 -26h-7l-59 31q-20 22 -20 47q0 21 13 43zM807 523q70 76 133 165q98 139 98 213q0 21 -8 36q-12 22 -30 22 q-14 0 -33 -14q-38 -28 -79 -103q-83 -155 -83 -279q0 -20 2 -40z" />
<glyph unicode="w" horiz-adv-x="1628" d="M13 966q31 50 99 57q14 1 27 2q55 0 111 -20q102 -35 130 -123q11 -36 12 -93q0 -144 -73 -421q-10 -37 -29 -94q-20 -59 -24 -76q-10 -35 -6 -49q5 -17 28 -13q67 12 197 136q104 100 313 383q38 52 60 65q23 15 54 2q65 -27 67 -47q1 -5 1 -11q0 -48 -43 -167l-57 -164 q-1 -2 -14 -52q-12 -46 -19 -77q-8 -38 -8 -62q0 -35 18 -34h2q48 7 211 129q158 119 233 201q-75 95 -75 233q0 118 66 223q67 108 159 124q29 5 54 6q55 0 94 -26q57 -36 60 -112v-8q0 -78 -57 -174q-67 -113 -200 -231q6 -25 26 -53q39 -55 111 -66q20 -3 41 -3 q96 0 205 65q35 22 35 8q0 -8 -18 -30q-13 -15 -61 -38q-58 -29 -120 -41q-43 -9 -81 -9q-122 0 -199 88q-86 -92 -198 -187q-224 -190 -356 -204q-27 -3 -49 -3q-95 0 -115 51q-6 13 -6 33q0 34 16 90q34 121 40 173q-48 -40 -47 -39q-72 -69 -140 -123q-15 -12 -65 -56 q-40 -34 -66 -53q-77 -57 -153 -64q-27 -3 -50 -3q-94 0 -114 50q-5 13 -5 33q0 35 15 91q41 148 91 386q47 228 47 311q0 38 -10 46q-17 14 -24 11q-5 -1 -6 -14q-5 -42 -14 -50q-27 -23 -49 -26h-7q-29 0 -58 30q-20 23 -20 47q0 21 13 42zM1382 517q70 75 132 163 q96 137 96 209q0 21 -8 37q-11 22 -29 22q-14 0 -32 -14q-38 -28 -79 -102q-82 -153 -82 -275q0 -20 2 -40z" />
<glyph unicode="x" horiz-adv-x="1010" d="M-178 -179q35 129 143 322q126 227 281 404q-59 343 -122 383q-38 25 -51 -8q-24 -58 -21 -55q-5 -5 -15 3q-9 8 -15 24q-7 16 -7 30q0 21 15 38q29 33 114 56q43 11 74 11q33 0 51 -13q30 -22 74 -138q11 -29 33 -94q20 -55 28 -75q225 217 280 253q77 52 80 53 q26 13 50 13q19 0 36 -8q54 -23 78 -48q29 -29 4 -51q-10 -8 -64 -41q-75 -46 -118 -74q-183 -118 -301 -237q122 -261 158 -351q45 -113 48 -118q28 -51 78 -54h6q54 0 155 46q97 44 177 103q40 29 55 29q8 0 8 -9q0 -30 -35 -56q-110 -79 -137 -93q-127 -69 -246 -69h-19 q-158 7 -237 85q-88 86 -187 352q-144 -135 -289 -474q-32 -76 -48 -151q-7 -35 -33 -47q-77 -35 -74 -35h-1q-17 0 -17 28q0 24 11 66z" />
<glyph unicode="y" d="M0 223q0 111 65 300q78 224 95 328q10 64 114 76q22 3 42 3q66 0 103 -29q10 -8 10 -25q0 -33 -35 -99q-98 -186 -124 -251q-65 -164 -72 -241q-1 -9 -1 -18q0 -59 44 -65h3q42 0 180 128q11 11 63 70q64 74 98 111q32 83 302 593q13 26 31 44q17 16 32 16q17 0 31 -21 q45 -69 55 -114q4 -18 4 -35q0 -50 -37 -88q-307 -306 -463 -1019q-61 -276 -61 -561q0 -194 28 -392q7 -56 7 -89q0 -43 -12 -48q-2 -1 -5 -1q-34 0 -167 88q-35 24 -35 189q0 58 4 134q21 346 136 812q43 173 91 323q-36 -31 -50 -47q-139 -173 -301 -208q-32 -7 -58 -7 q-117 0 -117 143z" />
<glyph unicode="z" d="M-5 715q48 79 132 156q163 147 339 147h16q226 -9 315 -204q37 -80 37 -163q0 -120 -78 -245q133 -129 173 -343q49 22 97 22q56 0 110 -30q19 -11 19 -17q0 -8 -31 -10q-105 -6 -113 -8q-40 -10 -72 -25q2 -27 2 -54q0 -20 -1 -40q-17 -296 -230 -681 q-232 -420 -476 -420q-15 0 -31 2q-138 14 -140 172v5q0 143 105 351q105 211 269 392q177 197 354 280q8 38 8 82q0 20 -2 41q-9 137 -83 204q-61 -88 -162 -173q-186 -155 -369 -155q-16 0 -33 1q-116 8 -144 82q-8 21 -8 43q0 52 43 114q64 92 189 150q133 62 294 62h24 q56 72 99 162q49 101 49 175q0 57 -29 97q-40 55 -129 55q-73 0 -179 -37q-203 -71 -316 -178q-21 -15 -37 -24q-20 -11 -20 -4q0 4 9 16zM55 97q-1 -6 -1 -11q0 -30 25 -30q41 0 151 85q169 130 264 253q-105 -37 -213 -93q-215 -111 -226 -204zM197 -1103q2 -19 15 -19 q22 0 74 54q82 85 186 245q269 413 314 724q-159 -140 -312 -335q-280 -357 -279 -620q-1 -25 2 -49z" />
<glyph unicode="&#x2000;" horiz-adv-x="1029" />
<glyph unicode="&#x2001;" horiz-adv-x="2058" />
<glyph unicode="&#x2002;" horiz-adv-x="1029" />
<glyph unicode="&#x2003;" horiz-adv-x="2058" />
<glyph unicode="&#x2004;" horiz-adv-x="686" />
<glyph unicode="&#x2005;" horiz-adv-x="514" />
<glyph unicode="&#x2006;" horiz-adv-x="343" />
<glyph unicode="&#x2007;" horiz-adv-x="343" />
<glyph unicode="&#x2008;" horiz-adv-x="257" />
<glyph unicode="&#x2009;" horiz-adv-x="411" />
<glyph unicode="&#x200a;" horiz-adv-x="114" />
<glyph unicode="&#x202f;" horiz-adv-x="411" />
<glyph unicode="&#x205f;" horiz-adv-x="514" />
<glyph unicode="&#x25fc;" horiz-adv-x="1030" d="M0 0v1030h1030v-1030h-1030z" />
</font>
</defs>
</svg>
